<svg width="60" height="60" viewBox="0 0 60 60" fill="none" xmlns="http://www.w3.org/2000/svg">
<g clip-path="url(#clip0_1_68776)">
<path d="M60 30C60 13.4315 46.5685 0 30 0C13.4315 0 0 13.4315 0 30C0 46.5685 13.4315 60 30 60C46.5685 60 60 46.5685 60 30Z" fill="#171717"/>
<path d="M47.5 27.4965H47.1401C42.9458 27.4965 38.7515 27.4939 34.5578 27.5C34.0844 27.5005 33.716 27.3764 33.4126 27.1032C33.0594 26.7853 32.6943 26.4744 32.3293 26.164C31.8152 25.727 31.1993 25.7205 30.6595 26.1474C30.2196 26.4954 29.783 26.846 29.3496 27.1996C29.1047 27.3995 28.8191 27.499 28.4528 27.499C23.2538 27.495 18.0549 27.4965 12.8552 27.496C12.7594 27.496 12.6635 27.4894 12.5 27.4839C12.6123 26.9324 12.6943 26.3965 12.8368 25.8701C12.9695 25.3815 13.175 24.9053 13.3306 24.4201C13.395 24.2202 13.5289 24.1695 13.7909 24.17C19.2196 24.1765 24.6477 24.171 30.0765 24.1791C30.8519 24.18 31.4757 23.9972 31.9602 23.5246C32.2288 23.2624 32.5295 23.0178 32.8296 22.7752C33.2951 22.399 33.9182 22.4105 34.3706 22.7973C34.7423 23.1143 35.1211 23.4271 35.4764 23.7551C35.8113 24.064 36.2321 24.178 36.7443 24.1775C39.9005 24.1725 43.0575 24.178 46.2137 24.17C46.5026 24.169 46.6201 24.2308 46.7088 24.4462C47.1126 25.4282 47.3884 26.4262 47.4987 27.497L47.5 27.4965Z" fill="white"/>
<path d="M13.9612 37.4925C13.2729 35.9026 12.7952 34.258 12.5 32.4946C12.6566 32.4946 12.7859 32.4946 12.9151 32.4946C16.5509 32.4946 20.1867 32.4901 23.8225 32.4983C24.546 32.4998 25.1343 32.2283 25.5967 31.5956C25.8918 31.1926 26.2037 30.8044 26.5202 30.4215C26.9859 29.8584 27.6301 29.8599 28.0885 30.4237C28.477 30.9009 28.8647 31.3803 29.2352 31.8753C29.5676 32.3211 29.9827 32.4976 30.491 32.4968C36.0223 32.4915 41.5536 32.4938 47.0843 32.4938C47.2155 32.4938 47.3468 32.4938 47.5 32.4938C47.2242 34.1847 46.7572 35.7664 46.1329 37.2951C46.0363 37.5321 45.883 37.4932 45.7231 37.4932C42.5751 37.4932 39.4269 37.4932 36.2789 37.4932C33.6185 37.4932 30.9581 37.4857 28.2984 37.5C27.7574 37.5029 27.3377 37.3078 26.9946 36.8374C26.6507 36.3662 26.2816 35.919 25.9185 35.4658C25.4461 34.8757 24.8165 34.8511 24.3215 35.4119C23.8385 35.9594 23.386 36.5442 22.8797 37.0632C22.6752 37.2734 22.3654 37.4701 22.1022 37.473C19.3985 37.5029 16.6941 37.491 13.9598 37.491L13.9612 37.4925Z" fill="white"/>
<path d="M44.9607 19.9951C44.0432 19.9951 43.1251 19.9951 42.2075 19.9951C41.9627 19.9951 41.7172 19.9929 41.4724 19.9951C41.039 20 40.6784 19.8387 40.3901 19.5177C39.9622 19.0403 39.5428 18.5559 39.1107 18.082C38.6099 17.5324 37.9421 17.5198 37.4265 18.0484C36.9629 18.5236 36.5013 19.0024 36.0531 19.4924C35.7339 19.8415 35.3622 20.0007 34.8809 20C28.4179 19.9916 21.9541 19.9944 15.491 19.9944C15.3641 19.9944 15.2371 19.9944 15 19.9944C18.2133 15.8885 22.2858 13.3446 27.377 12.6871C34.5766 11.7576 40.4266 14.3141 45 19.864C44.9867 19.9075 44.9733 19.9509 44.96 19.9944L44.9607 19.9951Z" fill="white"/>
<path d="M17.5 42.1537C18.2096 42.0936 18.7154 41.7446 19.1313 41.2234C19.3684 40.9263 19.6377 40.6534 19.8949 40.3709C20.3339 39.8883 20.9599 39.8731 21.4059 40.3462C21.7691 40.7319 22.1277 41.1227 22.4658 41.5293C22.811 41.9453 23.2352 42.1132 23.7796 42.1125C29.8933 42.1037 36.007 42.1068 42.1214 42.1068C42.2474 42.1068 42.374 42.1068 42.5 42.1068C39.5794 45.2013 36.0019 47.0216 31.7515 47.4142C26.1635 47.9303 21.4188 46.1114 17.5 42.1531V42.1537Z" fill="white"/>
</g>
<defs>
<clipPath id="clip0_1_68776">
<rect width="60" height="60" fill="white"/>
</clipPath>
</defs>
</svg>
