<svg width="60" height="60" viewBox="0 0 60 60" fill="none" xmlns="http://www.w3.org/2000/svg">
<g clip-path="url(#clip0_4526_68343)">
<g clip-path="url(#clip1_4526_68343)">
<path d="M48.5147 10.2925H11.4688V43.9627H48.5147V10.2925Z" fill="white"/>
<path fill-rule="evenodd" clip-rule="evenodd" d="M59.9757 29.9997C59.9757 46.5463 46.5534 59.9598 29.9957 59.9598C13.4381 59.9598 0.015625 46.5463 0.015625 29.9997C0.015625 13.4531 13.4381 0.0395508 29.9957 0.0395508C46.5534 0.0395508 59.9757 13.4531 59.9757 29.9997ZM21.5002 41.9223H15.6819C14.4593 41.9223 13.8554 41.9223 13.4872 41.6869C13.0894 41.4292 12.8464 41.0023 12.8169 40.5312C12.7948 40.0971 13.0968 39.567 13.7007 38.5072L28.0668 13.2018C28.6781 12.1273 28.9874 11.59 29.3777 11.3913C29.7975 11.1778 30.2984 11.1778 30.7182 11.3913C31.1085 11.59 31.4179 12.1273 32.0291 13.2018L34.9825 18.3539L34.9975 18.3802C35.6578 19.533 35.9926 20.1176 36.1388 20.7311C36.3008 21.4009 36.3008 22.1075 36.1388 22.7772C35.9915 23.3955 35.6601 23.9843 34.9898 25.1545L27.4437 38.4851L27.4242 38.5193C26.7596 39.6816 26.4228 40.2707 25.956 40.7151C25.4478 41.201 24.8365 41.554 24.1663 41.7531C23.555 41.9223 22.8701 41.9223 21.5002 41.9223ZM36.1933 41.9223H44.5302C45.7601 41.9223 46.3789 41.9223 46.7474 41.6797C47.145 41.422 47.3953 40.9876 47.4176 40.5168C47.4388 40.0967 47.1434 39.5873 46.5645 38.589C46.5446 38.555 46.5246 38.5205 46.5043 38.4853L42.3282 31.3461L42.2807 31.2657C41.6939 30.274 41.3977 29.7732 41.0172 29.5797C40.5977 29.3662 40.1039 29.3662 39.6842 29.5797C39.3013 29.7784 38.992 30.3009 38.3807 31.3534L34.2195 38.4926L34.2052 38.5172C33.5961 39.568 33.2916 40.0931 33.3136 40.524C33.3431 40.9951 33.5861 41.4292 33.9838 41.6869C34.3447 41.9223 34.9633 41.9223 36.1933 41.9223Z" fill="#E84142"/>
</g>
</g>
<defs>
<clipPath id="clip0_4526_68343">
<rect width="60" height="60" fill="white"/>
</clipPath>
<clipPath id="clip1_4526_68343">
<rect width="60" height="60" fill="white"/>
</clipPath>
</defs>
</svg>
