<svg width="24" height="24" viewBox="0 0 24 24" fill="none" xmlns="http://www.w3.org/2000/svg">
<circle cx="12" cy="12" r="12" fill="#EDF0F4"/>
<path d="M8.38607 11.9391C8.35194 12.5322 8.80845 13.0399 9.40149 13.074C9.42283 13.074 9.44416 13.074 9.46549 13.074C10.0628 13.074 10.5449 12.5919 10.5406 11.9946C10.5406 11.3973 10.0585 10.9152 9.46123 10.9195C8.88952 10.9195 8.41594 11.3674 8.38607 11.9391Z" fill="#0033AD"/>
<path d="M4.36727 11.6614C4.17528 11.6486 4.00889 11.7979 4.00036 11.9899C3.99182 12.1819 4.13689 12.3483 4.32888 12.3568C4.52087 12.3696 4.68299 12.2203 4.69579 12.0283C4.70859 11.8363 4.55927 11.6742 4.36727 11.6614Z" fill="#0033AD"/>
<path d="M8.31806 5.68454C8.48872 5.59921 8.55698 5.38589 8.47165 5.21523C8.38632 5.04457 8.173 4.97631 8.00234 5.06164C7.83168 5.14697 7.76342 5.35602 7.84875 5.52668C7.93408 5.70161 8.14313 5.77414 8.31806 5.68454C8.31806 5.68454 8.31379 5.68454 8.31806 5.68454Z" fill="#0033AD"/>
<path d="M9.41012 7.59143C9.67464 7.45917 9.78131 7.13492 9.64905 6.87039C9.51679 6.60587 9.19253 6.49921 8.92801 6.63147C8.66349 6.76373 8.55683 7.08798 8.68909 7.35251C8.82135 7.61703 9.1456 7.72369 9.41012 7.59143Z" fill="#0033AD"/>
<path d="M5.7323 8.90143C5.93709 9.03369 6.21015 8.97823 6.34668 8.77344C6.47894 8.56865 6.42347 8.29559 6.21868 8.15907C6.01389 8.02681 5.74084 8.08227 5.60431 8.28706C5.46778 8.49185 5.52751 8.76917 5.7323 8.90143Z" fill="#0033AD"/>
<path d="M6.38524 11.4697C6.08659 11.4526 5.83487 11.6787 5.8178 11.9774C5.80073 12.276 6.02686 12.5277 6.32551 12.5448C6.62416 12.5619 6.87589 12.3358 6.89295 12.0371C6.91002 11.7427 6.68389 11.4867 6.38524 11.4697Z" fill="#0033AD"/>
<path d="M5.79228 15.0833C5.57469 15.1943 5.4851 15.4588 5.59603 15.6806C5.70695 15.8982 5.97148 15.9878 6.19333 15.8769C6.41092 15.766 6.50052 15.5014 6.38959 15.2796C6.27866 15.062 6.00987 14.9724 5.79228 15.0833Z" fill="#0033AD"/>
<path d="M7.88268 10.3559C8.17706 10.5479 8.56958 10.4669 8.7573 10.1725C8.9493 9.87809 8.86823 9.48558 8.57385 9.29785C8.27946 9.10586 7.88694 9.18692 7.69922 9.48131C7.50723 9.77143 7.58829 10.1639 7.88268 10.3559Z" fill="#0033AD"/>
<path d="M14.5175 7.54871C14.7649 7.71084 15.102 7.64257 15.2641 7.39512C15.4262 7.14766 15.358 6.81061 15.1105 6.64849C14.863 6.48636 14.526 6.55462 14.3639 6.80208C14.1975 7.0538 14.2657 7.38659 14.5175 7.54871Z" fill="#0033AD"/>
<path d="M15.6181 5.65029C15.7803 5.75695 15.9936 5.71002 16.1003 5.54789C16.2069 5.38577 16.16 5.17245 15.9979 5.06578C15.8357 4.95912 15.6224 5.00605 15.5157 5.16391C15.4134 5.32604 15.4603 5.54363 15.6181 5.65029Z" fill="#0033AD"/>
<path d="M14.5981 10.911C14.0051 10.8768 13.4931 11.3334 13.4632 11.9264C13.4291 12.5194 13.8856 13.0314 14.4786 13.0613C14.5 13.0613 14.5213 13.0613 14.5384 13.0613C15.1314 13.0613 15.6135 12.5792 15.6135 11.9819C15.6178 11.4144 15.1698 10.9408 14.5981 10.911Z" fill="#0033AD"/>
<path d="M9.76413 10.2792C9.94758 10.6418 10.3188 10.8722 10.7283 10.8722C11.3214 10.8722 11.8035 10.3901 11.8035 9.7928C11.8035 9.62641 11.7651 9.46002 11.6883 9.30642C11.4195 8.77311 10.771 8.55979 10.242 8.82858C9.70866 9.10163 9.49534 9.75014 9.76413 10.2792Z" fill="#0033AD"/>
<path d="M18.2079 8.90135C18.4255 8.79042 18.5109 8.52164 18.3999 8.30405C18.289 8.08646 18.0202 8.00113 17.8026 8.11206C17.585 8.22298 17.4997 8.48751 17.6064 8.7051C17.7216 8.92269 17.9861 9.01228 18.2079 8.90135Z" fill="#0033AD"/>
<path d="M15.4772 9.2426C15.1658 9.40046 15.0378 9.78018 15.1956 10.0916C15.3535 10.4031 15.7332 10.5311 16.0447 10.3732C16.3561 10.2154 16.4841 9.83564 16.3263 9.52419C16.1684 9.21274 15.7887 9.08901 15.4772 9.2426Z" fill="#0033AD"/>
<path d="M11.9573 5.48816C12.2005 5.50095 12.4096 5.31323 12.4266 5.07004C12.4437 4.82685 12.2517 4.61779 12.0085 4.60073C11.7653 4.58793 11.5563 4.77139 11.5392 5.01458C11.5264 5.26203 11.7141 5.47109 11.9573 5.48816Z" fill="#0033AD"/>
<path d="M11.9531 8.27383C12.3029 8.29516 12.6016 8.02637 12.6186 7.67652C12.64 7.32667 12.3712 7.02802 12.0213 7.01095C11.6715 6.98962 11.3728 7.25841 11.3558 7.60826C11.3387 7.95811 11.6032 8.25676 11.9531 8.27383Z" fill="#0033AD"/>
<path d="M8.5227 14.7423C8.83415 14.5844 8.96215 14.2047 8.80429 13.8932C8.64643 13.5818 8.26671 13.4538 7.95526 13.6117C7.64381 13.7695 7.51581 14.1492 7.67367 14.4607C7.83153 14.7721 8.21125 14.9001 8.5227 14.7423Z" fill="#0033AD"/>
<path d="M12.3627 9.19976C12.0384 9.69893 12.175 10.3645 12.6741 10.6888C13.1733 11.013 13.8389 10.8765 14.1631 10.3773C14.4874 9.87813 14.3509 9.21256 13.8517 8.8883C13.6768 8.77311 13.472 8.71338 13.2629 8.71338C12.9003 8.71338 12.5632 8.89684 12.3627 9.19976Z" fill="#0033AD"/>
<path d="M14.2357 13.7053C13.9669 13.172 13.3184 12.9587 12.7893 13.2275C12.256 13.4963 12.0427 14.1448 12.3115 14.6738C12.5803 15.2071 13.2288 15.4205 13.7578 15.1517C14.2869 14.8872 14.5045 14.2472 14.2399 13.7139C14.2399 13.7096 14.2399 13.7096 14.2357 13.7053Z" fill="#0033AD"/>
<path d="M16.1173 13.6284C15.8229 13.4364 15.4304 13.5175 15.2427 13.8119C15.0507 14.1063 15.1317 14.4988 15.4261 14.6865C15.7205 14.8785 16.113 14.7974 16.3008 14.503C16.4928 14.2129 16.4117 13.8204 16.1173 13.6284Z" fill="#0033AD"/>
<path d="M18.182 12.0117C18.1991 11.7131 17.973 11.4613 17.6743 11.4443C17.3757 11.4272 17.1239 11.6533 17.1069 11.952C17.0898 12.2506 17.3159 12.5024 17.6146 12.5194C17.909 12.5365 18.1649 12.3061 18.182 12.0117Z" fill="#0033AD"/>
<path d="M19.671 11.6277C19.479 11.6149 19.3126 11.7642 19.3041 11.9562C19.2955 12.1482 19.4406 12.3146 19.6326 12.3232C19.8246 12.336 19.9867 12.1866 19.9995 11.9946C20.008 11.8026 19.863 11.6405 19.671 11.6277Z" fill="#0033AD"/>
<path d="M18.2676 15.0834C18.0628 14.9511 17.7897 15.0066 17.6532 15.2114C17.5209 15.4162 17.5764 15.6892 17.7812 15.8257C17.986 15.958 18.259 15.9025 18.3956 15.6978C18.5321 15.493 18.4724 15.2156 18.2676 15.0834Z" fill="#0033AD"/>
<path d="M8.37797 18.3343C8.21585 18.2277 8.00252 18.2746 7.89586 18.4325C7.7892 18.5946 7.83613 18.8079 7.99399 18.9146C8.15612 19.0212 8.36944 18.9743 8.4761 18.8164C8.58703 18.6586 8.5401 18.441 8.37797 18.3343Z" fill="#0033AD"/>
<path d="M15.682 18.3002C15.5114 18.3856 15.4431 18.5989 15.5284 18.7695C15.6138 18.9402 15.8271 19.0085 15.9977 18.9231C16.1684 18.8378 16.2367 18.6287 16.1513 18.4581C16.066 18.2832 15.857 18.2106 15.682 18.3002C15.6863 18.3002 15.682 18.3002 15.682 18.3002Z" fill="#0033AD"/>
<path d="M11.6375 14.7847C11.9618 14.2855 11.8253 13.6199 11.3261 13.2914C10.8269 12.9671 10.1613 13.1037 9.83282 13.6028C9.50431 14.102 9.6451 14.7676 10.1443 15.0961C10.3192 15.2113 10.524 15.271 10.7331 15.271C11.1 15.2753 11.437 15.0918 11.6375 14.7847Z" fill="#0033AD"/>
<path d="M9.48301 16.4356C9.23555 16.2735 8.8985 16.3417 8.73638 16.5892C8.57425 16.8366 8.64251 17.1737 8.88997 17.3358C9.13742 17.4979 9.47448 17.4297 9.6366 17.1822C9.803 16.9348 9.73473 16.5977 9.48301 16.4356Z" fill="#0033AD"/>
<path d="M11.9958 18.4967C11.7526 18.4839 11.5435 18.6716 11.5264 18.9148C11.5094 19.158 11.7014 19.3671 11.9446 19.3841C12.1878 19.3969 12.3968 19.2135 12.4139 18.9703C12.4267 18.7228 12.2389 18.5138 11.9958 18.4967Z" fill="#0033AD"/>
<path d="M11.9998 15.7107C11.6499 15.6893 11.3513 15.9581 11.3342 16.308C11.3129 16.6578 11.5817 16.9565 11.9315 16.9735C12.2814 16.9906 12.58 16.7261 12.5971 16.3762C12.6184 16.0306 12.3496 15.7277 11.9998 15.7107Z" fill="#0033AD"/>
<path d="M14.5896 16.3931C14.3251 16.5296 14.2184 16.8539 14.3549 17.1184C14.4915 17.3829 14.8157 17.4896 15.0802 17.3531C15.3448 17.2208 15.4514 16.8966 15.3192 16.632C15.1826 16.3675 14.8584 16.2566 14.5896 16.3931Z" fill="#0033AD"/>
</svg>
