<svg width="60" height="60" viewBox="0 0 60 60" fill="none" xmlns="http://www.w3.org/2000/svg">
<g clip-path="url(#clip0_4526_68330)">
<path d="M30 60C46.5685 60 60 46.5685 60 30C60 13.4315 46.5685 0 30 0C13.4315 0 0 13.4315 0 30C0 46.5685 13.4315 60 30 60Z" fill="#F6F6F6"/>
<path d="M29.9033 7.5L29.5938 8.5255V38.2806L29.9033 38.5818L44.0638 30.4176L29.9033 7.5Z" fill="#343434"/>
<path d="M29.9031 7.5L15.7422 30.4176L29.9031 38.5818V24.1395V7.5Z" fill="#8C8C8C"/>
<path d="M29.901 41.1966L29.7266 41.4041V52.0034L29.901 52.5001L44.0702 33.0366L29.901 41.1966Z" fill="#3C3C3B"/>
<path d="M29.9031 52.5001V41.1966L15.7422 33.0366L29.9031 52.5001Z" fill="#8C8C8C"/>
<path d="M29.9062 38.581L44.0668 30.4168L29.9062 24.1387V38.581Z" fill="#141414"/>
<path d="M15.7422 30.4168L29.9031 38.581V24.1387L15.7422 30.4168Z" fill="#393939"/>
</g>
<defs>
<clipPath id="clip0_4526_68330">
<rect width="60" height="60" fill="white"/>
</clipPath>
</defs>
</svg>
