<svg width="60" height="60" viewBox="0 0 60 60" fill="none" xmlns="http://www.w3.org/2000/svg">
<g clip-path="url(#clip0_4353_80937)">
<path d="M30 60C46.5685 60 60 46.5685 60 30C60 13.4315 46.5685 0 30 0C13.4315 0 0 13.4315 0 30C0 46.5685 13.4315 60 30 60Z" fill="black"/>
</g>
<g clip-path="url(#clip1_4353_80937)">
<path d="M23.5 15L30 40L36.5 15H23.5Z" fill="#A0DDFE" stroke="#A0DDFE" stroke-width="0.25"/>
<path d="M36.5 15L30 40L45 23.5L36.5 15Z" fill="#88D3FF" stroke="#88D3FF" stroke-width="0.25"/>
<path d="M45 23.4998L30 39.9998L45 36.4998V23.4998Z" fill="#73CBFF" stroke="#73CBFF" stroke-width="0.25"/>
<path d="M45 36.5002L30 40.0002L36.5 45.0002L45 36.5002Z" fill="#5BC1FF" stroke="#5BC1FF" stroke-width="0.25"/>
<path d="M36.5 45L30 40L23.5 45H36.5Z" fill="#80CFFF" stroke="#80CFFF" stroke-width="0.25"/>
<path d="M23.5 45.0002L30 40.0002L15 36.5002L23.5 45.0002Z" fill="#95D9FF" stroke="#95D9FF" stroke-width="0.25"/>
<path d="M15 36.4998L30 39.9998L15 23.4998V36.4998Z" fill="#ADE2FF" stroke="#ADE2FF" stroke-width="0.25"/>
<path d="M15 23.5L30 40L23.5 15L15 23.5Z" fill="#B7E7FF" stroke="#B7E7FF" stroke-width="0.25"/>
</g>
<defs>
<clipPath id="clip0_4353_80937">
<rect width="60" height="60" fill="white"/>
</clipPath>
<clipPath id="clip1_4353_80937">
<rect width="30" height="30" fill="white" transform="translate(15 15)"/>
</clipPath>
</defs>
</svg>
