<svg width="60" height="60" viewBox="0 0 60 60" fill="none" xmlns="http://www.w3.org/2000/svg">
<g clip-path="url(#clip0_9277_196370)">
<path d="M30 60C46.5685 60 60 46.5685 60 30C60 13.4315 46.5685 0 30 0C13.4315 0 0 13.4315 0 30C0 46.5685 13.4315 60 30 60Z" fill="#080809"/>
<mask id="mask0_9277_196370" style="mask-type:alpha" maskUnits="userSpaceOnUse" x="0" y="0" width="60" height="60">
<path d="M30 60C46.5685 60 60 46.5685 60 30C60 13.4315 46.5685 0 30 0C13.4315 0 0 13.4315 0 30C0 46.5685 13.4315 60 30 60Z" fill="#080809"/>
</mask>
<g mask="url(#mask0_9277_196370)">
<path fill-rule="evenodd" clip-rule="evenodd" d="M19.5669 23.1754L15.3994 20.1553C14.7676 21.2044 14.2303 22.3075 13.7937 23.4516L18.6772 25.0319C18.9317 24.3938 19.2289 23.7735 19.5669 23.1754ZM23.5734 18.5494L19.8124 15C18.6567 15.9704 17.6099 17.0636 16.6905 18.2604L20.8453 21.2703C21.6382 20.2535 22.5546 19.3395 23.5734 18.5494ZM17.9817 27.2286L13.1008 25.6482C12.7972 26.8302 12.5987 28.0368 12.5077 29.2539H17.6493C17.7154 28.5722 17.8265 27.8956 17.9817 27.2286ZM18.4624 35.964L13.5866 37.5444C14 38.7272 14.5221 39.8692 15.1463 40.9557L19.3266 37.928C18.9929 37.2899 18.7042 36.6294 18.4624 35.9512V35.964ZM20.5385 39.8817L16.394 42.8812C17.3563 44.202 18.4721 45.4038 19.7178 46.4613L23.4711 42.917C22.3601 42.0384 21.3735 41.013 20.5385 39.8688V39.8817ZM17.6135 31.9287H12.5C12.5584 33.0767 12.7132 34.2179 12.9628 35.34L17.8692 33.752C17.7497 33.1452 17.6644 32.5323 17.6135 31.9159V31.9287Z" fill="#BEFE00"/>
<path fill-rule="evenodd" clip-rule="evenodd" d="M32.9919 20.8362C30.6222 20.8371 28.3309 21.6849 26.5311 23.2267C24.7313 24.7684 23.5416 26.9025 23.1764 29.2443H28.2107C28.5778 28.086 29.3523 27.1003 30.3906 26.4695C31.4289 25.8387 32.6606 25.6058 33.8575 25.8139C35.0543 26.022 36.1352 26.6571 36.8998 27.6013C37.6643 28.5455 38.0607 29.735 38.0154 30.9492C37.9701 32.1633 37.4863 33.32 36.6536 34.2047C35.8209 35.0894 34.6957 35.6421 33.4867 35.7605C32.2777 35.8789 31.0667 35.555 30.0783 34.8486C29.0898 34.1423 28.3908 33.1015 28.111 31.9191H23.1406C23.3635 33.8204 24.1312 35.6168 25.3514 37.0918C26.5716 38.5667 28.1922 39.6573 30.0179 40.2321C31.8436 40.807 33.7966 40.8417 35.6415 40.3319C37.4864 39.8222 39.1446 38.7897 40.4163 37.359C41.688 35.9283 42.519 34.1603 42.8091 32.2681C43.0993 30.3758 42.8362 28.44 42.0516 26.6938C41.267 24.9477 39.9943 23.4658 38.3869 22.4265C36.7795 21.3872 34.9059 20.8349 32.9919 20.8362Z" fill="#BEFE00"/>
</g>
</g>
<defs>
<clipPath id="clip0_9277_196370">
<rect width="60" height="60" fill="white"/>
</clipPath>
</defs>
</svg>
