<svg width="24" height="24" viewBox="0 0 24 24" fill="none" xmlns="http://www.w3.org/2000/svg">
<circle cx="12" cy="12" r="12" transform="matrix(-1 0 0 1 24 0)" fill="#EDF0F4"/>
<path d="M8.39948 9.58972C8.65535 9.44253 8.98433 9.44253 9.27676 9.58972L11.3238 10.804L12.7128 11.5767L14.7232 12.7909C14.9791 12.9381 15.3081 12.9381 15.6005 12.7909L17.1723 11.8342C17.4282 11.687 17.611 11.3927 17.611 11.0615V9.22176C17.611 8.9274 17.4648 8.63304 17.1723 8.44906L15.6005 7.52918C15.3446 7.382 15.0157 7.382 14.7232 7.52918L13.1514 8.48586C12.8956 8.63304 12.7128 8.9274 12.7128 9.25856V10.4728L11.3238 9.66331V8.41227C11.3238 8.11791 11.47 7.82354 11.7624 7.63957L14.6867 5.91019C14.9426 5.76301 15.2715 5.76301 15.564 5.91019L18.5614 7.67636C18.8538 7.82354 19 8.11791 19 8.41227V11.871C19 12.1654 18.8538 12.4597 18.5614 12.6437L15.6005 14.3731C15.3446 14.5203 15.0157 14.5203 14.7232 14.3731L12.7128 13.1957L11.3238 12.3862L9.31332 11.2087C9.05744 11.0615 8.72846 11.0615 8.43603 11.2087L6.86423 12.1286C6.60835 12.2758 6.42559 12.5701 6.42559 12.9013V14.741C6.42559 15.0354 6.5718 15.3298 6.86423 15.5138L8.39948 16.4336C8.65535 16.5808 8.98433 16.5808 9.27676 16.4336L10.8486 15.5138C11.1044 15.3666 11.2872 15.0722 11.2872 14.741V13.5636L12.6762 14.3731V15.5873C12.6762 15.8817 12.53 16.1761 12.2376 16.36L9.27676 18.0894C9.02089 18.2366 8.69191 18.2366 8.39948 18.0894L5.43864 16.36C5.18277 16.2129 5 15.9185 5 15.5873V12.0918C5 11.7974 5.14621 11.5031 5.43864 11.3191L8.39948 9.58972Z" fill="#8247E5"/>
</svg>
