<svg width="24" height="24" viewBox="0 0 24 24" fill="none" xmlns="http://www.w3.org/2000/svg">
<circle cx="12" cy="12" r="12" fill="#EBEBEB"/>
<path fill-rule="evenodd" clip-rule="evenodd" d="M11.9796 20C14.3562 20 16.4914 18.9689 17.96 17.3308C17.2768 16.7386 16.2473 16.7026 15.5199 17.288L15.381 17.3998C14.0493 18.4716 12.1088 18.3134 10.9694 17.04C10.348 16.3455 9.28367 16.2746 8.57515 16.8804L6.97314 18.2504C8.34525 19.3453 10.0858 20 11.9796 20ZM14.5801 16.1262C15.8485 15.1052 17.6313 15.1419 18.8513 16.1279C19.5805 14.9227 20 13.5102 20 12C20 10.3219 19.482 8.76442 18.5968 7.47809C18.0261 7.35686 17.4075 7.49845 16.938 7.91348L16.8044 8.0316C15.5237 9.16359 13.578 9.09481 12.3808 7.87523C11.728 7.21006 10.6615 7.18822 9.98174 7.82609L8.11746 9.57554L7.09188 8.48822L8.95616 6.73875C10.2295 5.54386 12.2273 5.58478 13.4503 6.8308C14.0894 7.48185 15.128 7.51857 15.8117 6.91427L15.9454 6.79615C16.3604 6.42933 16.8405 6.18204 17.3432 6.05197C15.9223 4.77633 14.0418 4 11.9796 4C7.90816 4 4.54527 7.02604 4.02817 10.9463C5.26483 10.3544 6.79026 10.5822 7.79857 11.6121C8.43514 12.2623 9.46011 12.331 10.1781 11.7715L11.2204 10.9592C12.5305 9.93837 14.3823 9.98778 15.6357 11.077L17.6651 12.8406L16.6819 13.9662L14.6525 12.2027C13.9398 11.5833 12.8868 11.5552 12.1419 12.1356L11.0995 12.9479C9.7804 13.9758 7.89727 13.8498 6.72775 12.6552C6.04767 11.9605 4.9354 11.9363 4.22557 12.6006L4 12.8118C4.16881 14.4826 4.8531 16.0018 5.89184 17.2086L7.60099 15.7471C8.92824 14.612 10.9219 14.7449 12.0861 16.0459C12.6943 16.7257 13.7302 16.8101 14.4411 16.238L14.5801 16.1262Z" fill="#0B2632"/>
</svg>
