<svg width="24" height="24" viewBox="0 0 24 24" fill="none" xmlns="http://www.w3.org/2000/svg">
<circle cx="12" cy="12" r="12" fill="black"/>
<path d="M19.0596 15.4608L16.8447 17.8357C16.7968 17.8873 16.7388 17.9285 16.6743 17.9567C16.6097 17.9848 16.5401 17.9994 16.4697 17.9995H5.97023C5.92016 17.9994 5.87117 17.9848 5.82928 17.9574C5.78739 17.9299 5.75442 17.8909 5.73439 17.845C5.71436 17.7991 5.70814 17.7483 5.71651 17.699C5.72488 17.6496 5.74746 17.6037 5.78149 17.567L7.99388 15.1921C8.04179 15.1405 8.09981 15.0994 8.16432 15.0712C8.22884 15.043 8.29847 15.0284 8.36887 15.0284H18.8683C18.9189 15.0273 18.9686 15.0412 19.0112 15.0684C19.0539 15.0955 19.0875 15.1347 19.108 15.1809C19.1284 15.2271 19.1347 15.2784 19.1261 15.3282C19.1175 15.378 19.0944 15.4242 19.0596 15.4608ZM16.8447 10.6773C16.7966 10.626 16.7386 10.585 16.6741 10.5568C16.6096 10.5287 16.5401 10.514 16.4697 10.5136H5.97023C5.92016 10.5136 5.87117 10.5282 5.82928 10.5557C5.78739 10.5831 5.75442 10.6222 5.73439 10.6681C5.71436 10.714 5.70814 10.7647 5.71651 10.8141C5.72488 10.8635 5.74746 10.9093 5.78149 10.9461L7.99388 13.3222C8.04197 13.3735 8.10003 13.4145 8.1645 13.4427C8.22898 13.4709 8.29851 13.4856 8.36887 13.4859H18.8683C18.9183 13.4857 18.9671 13.4709 19.0088 13.4433C19.0505 13.4158 19.0833 13.3767 19.1032 13.3309C19.1231 13.285 19.1292 13.2344 19.1208 13.1851C19.1124 13.1359 19.0898 13.0901 19.0558 13.0535L16.8447 10.6773ZM5.97023 8.97116H16.4697C16.5401 8.9711 16.6098 8.95653 16.6743 8.92836C16.7388 8.90018 16.7968 8.85901 16.8447 8.80742L19.0596 6.43253C19.0856 6.40509 19.1051 6.37224 19.1169 6.33635C19.1287 6.30046 19.1324 6.2624 19.1278 6.2249C19.1232 6.18741 19.1103 6.15139 19.0902 6.11944C19.07 6.08748 19.0431 6.06037 19.0112 6.04005C18.9686 6.01292 18.9189 5.99901 18.8683 6.00006H8.36887C8.29847 6.00013 8.22884 6.01471 8.16432 6.04288C8.09981 6.07105 8.04179 6.11221 7.99388 6.1638L5.78149 8.53868C5.74746 8.57542 5.72488 8.62128 5.71651 8.67065C5.70814 8.72002 5.71436 8.77077 5.73439 8.81666C5.75442 8.86256 5.78739 8.90162 5.82928 8.92906C5.87117 8.9565 5.92016 8.97113 5.97023 8.97116Z" fill="url(#paint0_linear_10497_181706)"/>
<defs>
<linearGradient id="paint0_linear_10497_181706" x1="6.84519" y1="18.2857" x2="17.8546" y2="5.87381" gradientUnits="userSpaceOnUse">
<stop offset="0.08" stop-color="#9945FF"/>
<stop offset="0.3" stop-color="#8752F3"/>
<stop offset="0.5" stop-color="#5497D5"/>
<stop offset="0.6" stop-color="#43B4CA"/>
<stop offset="0.72" stop-color="#28E0B9"/>
<stop offset="0.97" stop-color="#19FB9B"/>
</linearGradient>
</defs>
</svg>
