<svg width="46" height="46" viewBox="0 0 46 46" fill="none" xmlns="http://www.w3.org/2000/svg">
<g clip-path="url(#clip0_4758_83113)">
<path d="M23 46C35.7025 46 46 35.7025 46 23C46 10.2975 35.7025 0 23 0C10.2975 0 0 10.2975 0 23C0 35.7025 10.2975 46 23 46Z" fill="white"/>
<path d="M20.4629 22.3352C20.2866 22.5116 20.1875 22.7507 20.1875 23.0001C20.1875 23.2494 20.2866 23.4886 20.4629 23.6649L22.3373 25.5393C22.5136 25.7157 22.7528 25.8147 23.0021 25.8147C23.2515 25.8147 23.4907 25.7157 23.667 25.5393L25.5413 23.6649C25.7176 23.4886 25.8167 23.2494 25.8167 23.0001C25.8167 22.7507 25.7176 22.5116 25.5413 22.3352L23.667 20.4609C23.4907 20.2846 23.2515 20.1855 23.0021 20.1855C22.7528 20.1855 22.5136 20.2846 22.3373 20.4609L20.4629 22.3352Z" fill="#08C284"/>
<path fill-rule="evenodd" clip-rule="evenodd" d="M30.0943 13.072C30.4698 13.6573 30.791 14.2758 31.0538 14.9197C25.9625 9.16577 17.2995 7.81807 10.6292 12.0936C9.57577 12.7688 9.2692 14.1702 9.9444 15.2236C10.6197 16.277 12.0211 16.5836 13.0745 15.9084C13.6598 15.5328 14.2783 15.2117 14.9222 14.9489C9.16824 20.0402 7.82054 28.7033 12.0961 35.3735C12.7714 36.4269 14.1726 36.7335 15.2261 36.0583C16.2795 35.383 16.5861 33.9816 15.9109 32.9282C15.5353 32.3428 15.2142 31.7244 14.9514 31.0805C20.0338 36.8245 28.6758 38.1775 35.3413 33.9287C35.989 33.5291 36.4202 32.8126 36.4189 31.9956C36.417 30.7444 35.401 29.7317 34.1498 29.7336C33.707 29.7336 33.274 29.8639 32.9047 30.1083C32.3271 30.4768 31.7173 30.7924 31.083 31.0513C36.8369 25.96 38.1847 17.297 33.9091 10.6267C33.2339 9.5733 31.8325 9.26673 30.7791 9.94204C29.7256 10.6173 29.4191 12.0186 30.0943 13.072ZM19.3281 17.2821C16.173 19.3094 15.256 23.5099 17.2804 26.6681C19.3061 29.8284 23.5103 30.7481 26.6706 28.7223C29.8309 26.6966 30.7506 22.4924 28.7248 19.3321L28.7241 19.331C26.698 16.1716 22.4945 15.2523 19.3347 17.2779L19.3281 17.2821Z" fill="#08C284"/>
</g>
<defs>
<clipPath id="clip0_4758_83113">
<rect width="46" height="46" fill="white"/>
</clipPath>
</defs>
</svg>
