<svg width="24" height="24" viewBox="0 0 24 24" fill="none" xmlns="http://www.w3.org/2000/svg">
<g clip-path="url(#clip0_6418_101170)">
<path d="M24 12C24 5.37258 18.6274 0 12 0C5.37258 0 0 5.37258 0 12C0 18.6274 5.37258 24 12 24C18.6274 24 24 18.6274 24 12Z" fill="#171717"/>
<path d="M12 24C18.6274 24 24 18.6274 24 12C24 5.37258 18.6274 0 12 0C5.37258 0 0 5.37258 0 12C0 18.6274 5.37258 24 12 24Z" fill="url(#paint0_linear_6418_101170)"/>
<path d="M17.5881 15.2448C16.4239 15.2448 15.3493 14.0788 14.794 13.3613C14.2388 14.0788 13.1642 15.2448 12 15.2448C10.8358 15.2448 9.76121 14.0788 9.20597 13.3613C8.68658 14.0788 7.61195 15.2448 6.44775 15.2448C6.19703 15.2448 6 15.0474 6 14.7963C6 14.5452 6.19703 14.3479 6.44775 14.3479C7.37911 14.3479 8.52537 12.859 8.84776 12.3388C8.93731 12.2132 9.08061 12.1235 9.22388 12.1235C9.36718 12.1235 9.52836 12.1953 9.6 12.3388C9.92239 12.859 11.0686 14.3479 12 14.3479C12.9314 14.3479 14.0776 12.859 14.4 12.3388C14.4896 12.2132 14.6329 12.1235 14.7761 12.1235C14.9373 12.1235 15.0806 12.1953 15.1522 12.3388C15.4746 12.859 16.6209 14.3479 17.5523 14.3479C17.803 14.3479 18 14.5452 18 14.7963C18 15.0474 17.8388 15.2448 17.5881 15.2448Z" fill="white"/>
<path d="M17.5881 17.7912C16.4239 17.7912 15.3493 16.6252 14.794 15.9077C14.2388 16.6252 13.1642 17.7912 12 17.7912C10.8358 17.7912 9.76121 16.6252 9.20597 15.9077C8.68658 16.6252 7.61195 17.7912 6.44775 17.7912C6.19703 17.7912 6 17.5938 6 17.3427C6 17.0916 6.19703 16.8942 6.44775 16.8942C7.37911 16.8942 8.52537 15.4054 8.84776 14.8852C8.93731 14.7596 9.08061 14.6699 9.22388 14.6699C9.36718 14.6699 9.52836 14.7417 9.6 14.8852C9.92239 15.4054 11.0686 16.8942 12 16.8942C12.9314 16.8942 14.0776 15.4054 14.4 14.8852C14.4896 14.7596 14.6329 14.6699 14.7761 14.6699C14.9373 14.6699 15.0806 14.7417 15.1522 14.8852C15.4746 15.4054 16.6209 16.8942 17.5523 16.8942C17.803 16.8942 18 17.0916 18 17.3427C18 17.5938 17.8388 17.7912 17.5881 17.7912Z" fill="white"/>
<path d="M6.75263 13.1994C6.53769 13.1994 6.3586 13.0559 6.30488 12.8406C6.25115 12.4818 6.21533 12.1231 6.21533 11.7822C6.21533 8.57133 8.81234 5.97031 12.0183 5.97031C15.2243 5.95237 17.8213 8.57133 17.8213 11.7822C17.8213 12.141 17.7855 12.4818 17.7317 12.8227C17.6959 13.0738 17.4631 13.2353 17.2123 13.1814C16.9616 13.1456 16.8004 12.9124 16.8541 12.6612C16.9079 12.3742 16.9258 12.0693 16.9258 11.7822C16.9258 9.0736 14.7228 6.86722 12.0183 6.86722C9.31382 6.86722 7.11084 9.05566 7.11084 11.7822C7.11084 12.0872 7.14666 12.3922 7.20038 12.6792C7.2362 12.9303 7.09293 13.1635 6.84218 13.1994C6.80636 13.1994 6.77054 13.1994 6.75263 13.1994Z" fill="white"/>
</g>
<defs>
<linearGradient id="paint0_linear_6418_101170" x1="6.5" y1="-2.23517e-07" x2="20.5" y2="24" gradientUnits="userSpaceOnUse">
<stop stop-color="#106AE3"/>
<stop offset="1" stop-color="#62C2FD"/>
</linearGradient>
<clipPath id="clip0_6418_101170">
<rect width="24" height="24" fill="white"/>
</clipPath>
</defs>
</svg>
