<svg xmlns="http://www.w3.org/2000/svg" width="36" height="36" viewBox="0 0 36 36" fill="none">
  <path d="M26.3898 27.8489C26.5913 28.0504 26.9179 28.0504 27.1194 27.8489L27.8489 27.1194C28.0504 26.9179 28.0504 26.5913 27.8489 26.3898L19.4591 18L27.8489 9.61019C28.0504 9.40873 28.0504 9.0821 27.8489 8.88064L27.1194 8.15109C26.9179 7.94964 26.5913 7.94964 26.3898 8.15109L18 16.5409L9.61019 8.15109C9.40873 7.94964 9.0821 7.94964 8.88064 8.15109L8.15109 8.88064C7.94964 9.0821 7.94964 9.40873 8.15109 9.61019L16.5409 18L8.15109 26.3898C7.94964 26.5913 7.94964 26.9179 8.15109 27.1194L8.88064 27.8489C9.0821 28.0504 9.40873 28.0504 9.61019 27.8489L18 19.4591L26.3898 27.8489Z" fill="#0A0A0A"/>
</svg>